<svg width="22" height="16" viewBox="0 0 22 16" fill="none" xmlns="http://www.w3.org/2000/svg">
<path d="M19 0H3C2.20435 0 1.44129 0.31607 0.87868 0.878679C0.31607 1.44129 0 2.20435 0 3V13C0 13.7956 0.31607 14.5587 0.87868 15.1213C1.44129 15.6839 2.20435 16 3 16H19C19.7956 16 20.5587 15.6839 21.1213 15.1213C21.6839 14.5587 22 13.7956 22 13V3C22 2.20435 21.6839 1.44129 21.1213 0.878679C20.5587 0.31607 19.7956 0 19 0ZM3 2H19C19.2652 2 19.5196 2.10536 19.7071 2.29289C19.8946 2.48043 20 2.73478 20 3V4H2V3C2 2.73478 2.10536 2.48043 2.29289 2.29289C2.48043 2.10536 2.73478 2 3 2ZM19 14H3C2.73478 14 2.48043 13.8946 2.29289 13.7071C2.10536 13.5196 2 13.2652 2 13V7.99999H20V13C20 13.2652 19.8946 13.5196 19.7071 13.7071C19.5196 13.8946 19.2652 14 19 14Z" fill="#BDBDBD"/>
</svg>
